PathFileType	4	(X/Y/Z)	C:\Users\Basilio\Documents\Thesis Gigler\squatting_fais\c3dfiles\019\SLS_back_pre1\markers_experimental.trc
DataRate	CameraRate	NumFrames	NumMarkers	Units	OrigDataRate	OrigDataStartFrame	OrigNumFrames
200.000000	200.000000	4	59	mm	200.000000	721	1442
Frame#	Time	LBHD			RBHD			C7			T10			CLAV			LSHO			LUUPA			LMUPA			LDUPA			LLEP			LMEP			LRAD			LUL			LRFIN			RSHO			RUPA1			RMUPA			RDUPA			RLEP			RMEP			RRAD			RUL			RUFIN			LASI			RASI			USACR			LSACR			RSACR			LTHI1			LTHI2			LTHI3			LTHI4			LLFC			LTIB1			LTIB2			LTIB3			LTIB4			LLMAL			LMMAL			LHEE			LMT1			LMT2			LMT5			RTHI2			RTHI4			RLFC			RTIB1			RTIB2			RTIB3			RTIB4			RLMAL			RMMAL			RHEE			RMT1			RMT2			RMT5			FHD			RTHI			RTHI3			
		X1	Y1	Z1	X2	Y2	Z2	X3	Y3	Z3	X4	Y4	Z4	X5	Y5	Z5	X6	Y6	Z6	X7	Y7	Z7	X8	Y8	Z8	X9	Y9	Z9	X10	Y10	Z10	X11	Y11	Z11	X12	Y12	Z12	X13	Y13	Z13	X14	Y14	Z14	X15	Y15	Z15	X16	Y16	Z16	X17	Y17	Z17	X18	Y18	Z18	X19	Y19	Z19	X20	Y20	Z20	X21	Y21	Z21	X22	Y22	Z22	X23	Y23	Z23	X24	Y24	Z24	X25	Y25	Z25	X26	Y26	Z26	X27	Y27	Z27	X28	Y28	Z28	X29	Y29	Z29	X30	Y30	Z30	X31	Y31	Z31	X32	Y32	Z32	X33	Y33	Z33	X34	Y34	Z34	X35	Y35	Z35	X36	Y36	Z36	X37	Y37	Z37	X38	Y38	Z38	X39	Y39	Z39	X40	Y40	Z40	X41	Y41	Z41	X42	Y42	Z42	X43	Y43	Z43	X44	Y44	Z44	X45	Y45	Z45	X46	Y46	Z46	X47	Y47	Z47	X48	Y48	Z48	X49	Y49	Z49	X50	Y50	Z50	X51	Y51	Z51	X52	Y52	Z52	X53	Y53	Z53	X54	Y54	Z54	X55	Y55	Z55	X56	Y56	Z56	X57	Y57	Z57	X58	Y58	Z58	X59	Y59	Z59	

722	3.605	-152.79248046875	1369.176391601563	-768.3072509765627	-159.7063140869141	1361.949951171875	-628.8624877929689	-225.0960388183594	1230.226928710938	-693.1148681640626	-400.9118652343751	1011.209533691406	-707.4227905273439	-119.286605834961	1131.84716796875	-698.5352172851564	-141.7380065917969	1209.5576171875	-827.6591796875002	-28.30850410461426	1161.742431640625	-883.308532714844	-4.761497020721436	1151.248779296875	-841.4553222656252	36.25594711303712	1146.996337890625	-885.831237792969	101.6167678833008	1102.28662109375	-915.5169677734377	90.50326538085939	1046.571899414063	-897.960632324219	339.9870910644532	1101.881225585938	-830.6196289062502	346.7458190917969	1056.81884765625	-878.442565917969	413.582977294922	1117.61572265625	-833.8190917968752	-129.9332580566407	1207.081787109375	-580.4091186523439	-30.6013355255127	1127.836181640625	-477.2446594238282	-4.032069683074952	1147.408813476563	-512.9072875976564	33.30707550048829	1108.869018554688	-483.3268127441407	109.6161651611328	1089.500854492188	-497.8323974609376	92.30828094482423	1036.597045898438	-511.2147521972657	346.5478515625001	1105.305297851563	-580.2578735351564	360.4275817871094	1060.804321289063	-530.0694580078126	429.2506103515626	1114.086181640625	-569.4676513671876	-399.7628784179689	771.3062133789065	-842.6109008789065	-378.4396972656251	762.7236328125001	-642.8886718750001	-485.9638671875001	901.0125122070315	-722.1770019531251	-510.8460693359376	879.4599609375002	-750.2614135742189	-507.2448120117189	873.0479736328127	-693.0819091796876	-495.8128662109376	550.3160400390626	-943.907653808594	-456.8768310546876	474.1243591308595	-955.561950683594	-412.6544189453126	473.3030700683595	-937.162292480469	-484.3128051757814	418.8249511718751	-952.6152954101565	-497.6185913085939	337.6830749511719	-945.9228515625002	-603.1351928710939	245.1431884765626	-915.7219848632815	-653.2091674804689	298.8575439453126	-975.0637207031252	-653.2743530273439	264.0719299316407	-949.7163085937502	-732.4363403320314	258.2445983886719	-914.6271972656252	-868.544616699219	319.5805664062501	-948.8552246093752	-856.7872314453127	307.5109863281251	-864.4207153320315	-909.3728637695315	382.4625549316407	-901.523132324219	-924.3518066406252	173.2188568115235	-867.7534790039065	-927.6192626953127	166.844223022461	-907.0153808593752	-954.4613037109377	205.7793579101563	-959.1866455078127	-326.5998840332032	630.7559814453126	-575.1918945312501	-283.0126647949219	560.0231933593751	-578.9742431640626	-199.8927001953126	440.3492431640626	-629.2890625000001	-214.2841491699219	279.2249450683594	-712.8831176757814	-291.8685913085938	219.5732574462891	-659.3156127929689	-263.7586975097657	205.6913299560547	-697.5175781250001	-294.9363403320313	185.3578796386719	-743.5677490234376	-383.1409912109376	119.6692047119141	-699.0207519531251	-366.2338562011719	135.1250610351563	-775.1658935546877	-458.471405029297	106.945915222168	-753.0378417968751	-258.8120727539063	58.70582580566408	-783.4251098632815	-253.6929321289063	59.68758392333986	-737.8345336914064	-293.3283996582032	46.87133026123048	-683.2689819335939	-22.90508079528809	1377.226318359375	-623.0507202148439	-391.1817321777345	636.0842895507814	-562.3466186523439	-312.6884460449219	658.5499267578126	-593.2443847656251	
723	3.61	-152.9054107666016	1368.365112304688	-768.3038330078127	-159.3971862792969	1360.987182617188	-628.9815063476564	-224.8651123046876	1229.420532226563	-693.0991210937501	-400.8982238769532	1010.567687988281	-707.4782714843751	-119.1105041503907	1131.051635742188	-698.6071166992189	-141.4967651367188	1208.834594726563	-827.6223144531252	-28.10487174987794	1161.158447265625	-883.2879028320315	-4.522302150726319	1150.638549804688	-841.402770996094	36.7006950378418	1146.362060546875	-885.7468872070315	101.9881134033203	1101.780639648438	-915.400329589844	90.79817962646486	1045.995239257813	-897.9577636718752	340.2335815429688	1101.442626953125	-830.416442871094	346.9862365722657	1056.432739257813	-878.2915039062502	413.982391357422	1117.159545898438	-833.562927246094	-129.5195922851563	1206.563232421875	-580.6776123046876	-30.46159744262696	1127.28466796875	-477.3692932128907	-3.972059965133668	1146.874145507813	-512.9804687500001	33.49063110351563	1108.354614257813	-483.3216552734376	109.823471069336	1088.972290039063	-497.4784545898439	92.61256408691408	1036.125610351563	-510.886932373047	346.7619018554688	1105.07763671875	-580.2066040039064	360.7777404785157	1060.615844726563	-530.0222167968751	429.3049316406251	1114.0048828125	-569.1932373046876	-400.4996337890626	770.578063964844	-842.536804199219	-378.3606567382813	762.0385742187501	-642.9854736328126	-486.2059020996095	900.3327636718752	-722.2496948242189	-511.1664428710939	878.9438476562502	-750.2407836914064	-506.1856384277345	872.438903808594	-693.0661621093751	-496.0668029785157	549.6565551757814	-943.9646606445315	-457.0660095214845	473.4776916503907	-955.6441650390627	-412.9221801757814	472.7112426757814	-937.2348632812502	-484.5684509277345	418.1979980468751	-952.6287231445315	-497.6939086914064	337.0578308105469	-945.8169555664065	-603.1538696289064	245.2255096435547	-915.2628173828127	-653.4621582031251	298.3523864746094	-974.9689941406252	-653.4470825195314	263.6723022460938	-949.7230224609377	-732.6742553710939	257.7722473144532	-914.5969848632815	-868.741882324219	319.1316528320313	-948.6970214843752	-857.122253417969	307.4129333496094	-864.2761840820315	-909.430358886719	382.0919494628907	-901.4265747070315	-924.7058105468752	172.7789306640625	-867.4866943359377	-927.8204345703127	166.4446868896485	-906.6921386718752	-954.7670898437502	205.4642639160157	-958.976501464844	-326.6258850097657	630.2566528320314	-575.5576782226564	-282.8424987792969	559.7191772460939	-579.3518676757814	-199.732406616211	440.1831665039064	-629.9634399414064	-214.1367492675782	279.0834655761719	-713.3084106445314	-291.7864685058594	219.5289001464844	-659.7345581054689	-263.6667480468751	205.6457214355469	-697.9612426757814	-294.8664245605469	185.2219848632813	-744.0245361328126	-381.6447753906251	123.3292312622071	-697.8888549804689	-367.4868164062501	135.5059967041016	-775.2864379882815	-458.3929748535157	106.8878555297852	-753.1281738281251	-258.4784240722657	58.26098632812501	-783.3704223632815	-253.7072753906251	59.72228622436525	-737.8249511718751	-293.3171691894532	46.9686508178711	-683.2819213867189	-22.65465164184571	1376.23681640625	-623.1119995117189	-391.124481201172	635.5557250976564	-562.6316528320314	-312.6789855957032	658.2601928710939	-593.7257690429689	
724	3.615	-152.5488586425782	1367.345458984375	-768.5592041015627	-159.1944274902344	1360.05615234375	-629.0613403320314	-224.6236419677735	1228.645141601563	-693.1758422851564	-400.8134765625001	1009.862060546875	-707.4351196289064	-118.6885528564453	1130.0615234375	-698.5750732421876	-141.0953521728516	1207.97900390625	-827.5874633789065	-27.64671707153321	1160.445556640625	-883.1428222656252	-4.205735206604005	1149.942626953125	-841.248962402344	37.13025283813477	1145.749633789063	-885.6035766601565	102.3896560668946	1101.1083984375	-915.2833251953127	91.1844940185547	1045.425048828125	-897.9172363281252	340.5001220703126	1101.013305664063	-830.253112792969	347.4129638671876	1056.041870117188	-878.216979980469	414.7193908691407	1116.574096679688	-833.3030395507815	-129.3520050048828	1205.810791015625	-580.8790893554689	-30.44416999816895	1126.781860351563	-477.4393920898439	-3.866578102111817	1146.3310546875	-513.0291137695314	33.79177474975587	1107.863159179688	-483.295135498047	109.9597320556641	1088.343872070313	-498.1203613281251	92.97337341308595	1035.5927734375	-510.8760375976564	347.0090942382813	1104.852905273438	-580.1655883789064	361.0615539550782	1060.384033203125	-529.9747314453126	429.945770263672	1113.808349609375	-569.6993408203126	-400.6610717773439	770.1293945312502	-842.8380126953127	-378.5315551757813	761.4819946289064	-643.0772094726564	-486.3872070312501	899.5616455078127	-722.2790527343751	-511.6001586914064	878.0866699218752	-750.2958374023439	-507.3895874023439	871.7669067382815	-692.9869995117189	-496.3045654296876	548.9356079101564	-944.017761230469	-457.2639465332032	472.9365844726564	-955.7295532226565	-413.0726623535157	472.0596618652345	-937.2293090820315	-484.7952270507814	417.5575256347657	-952.6850585937502	-497.9775695800782	336.4259338378907	-945.8953247070315	-603.7794799804689	243.8643035888672	-915.8912353515627	-653.6762084960939	297.8721923828126	-974.8765258789065	-653.6143188476564	263.1616516113282	-949.7059326171877	-732.8590087890626	257.3364562988282	-914.4245605468752	-868.9034423828127	318.7113342285157	-948.5612792968752	-857.2822875976565	307.0689392089844	-864.187927246094	-909.5786132812502	381.7393493652344	-901.3443603515627	-924.8235473632815	172.4245758056641	-867.2986450195315	-927.9824218750002	166.1254425048828	-906.452819824219	-954.9595336914065	205.1109771728516	-958.7309570312502	-326.4801025390626	629.8292236328126	-575.9210815429689	-282.6466674804688	559.4470214843751	-579.7774658203126	-199.448715209961	440.0570068359376	-630.6427001953126	-214.0058898925782	278.9300537109376	-713.8318481445314	-291.7536926269532	219.5129852294922	-659.9481811523439	-263.6192016601563	205.4762420654297	-698.3479614257814	-294.8243713378907	185.141098022461	-744.2394409179689	-380.9878845214844	122.7703323364258	-698.4456787109376	-367.5358581542969	135.3631134033203	-775.4476318359377	-458.4089965820314	106.8592300415039	-753.1712036132814	-258.5840148925782	58.074764251709	-783.4493408203127	-253.6551055908204	59.75579071044923	-737.9080200195314	-293.3139343261719	47.06641006469727	-683.2784423828126	-22.31688499450684	1375.167358398438	-623.1775512695314	-391.0957336425782	635.2279052734376	-562.9043579101564	-312.7395324707032	657.7905273437501	-594.1105957031251	
725	3.62	-152.4617614746094	1366.561645507813	-768.4849853515627	-158.8627319335938	1359.20947265625	-629.0372314453126	-224.3104553222657	1227.809692382813	-693.2887573242189	-400.8043823242189	1009.175048828125	-707.4844970703126	-118.7127532958985	1129.182495117188	-698.6674804687501	-140.7759704589844	1207.224609375	-827.5006103515627	-27.49426841735841	1159.781616210938	-883.0964355468752	-4.43124532699585	1149.493408203125	-841.505310058594	37.42531204223634	1145.085571289063	-885.4903564453127	102.8603591918946	1100.465454101563	-915.2156982421877	91.44373321533205	1044.919311523438	-897.9660644531252	340.7426757812501	1100.627685546875	-830.105895996094	347.7352294921876	1055.70751953125	-878.0737915039065	415.2951660156251	1116.077758789063	-833.0297851562502	-129.2907867431641	1204.92724609375	-580.9107055664064	-30.17724990844727	1126.201538085938	-477.4735412597657	-3.565977334976197	1145.73095703125	-513.0344848632814	34.04572677612305	1107.457641601563	-483.2901611328126	110.2378387451172	1087.90087890625	-498.2008361816407	93.35452270507814	1035.257080078125	-510.4587707519532	347.2740173339844	1104.579345703125	-580.0441284179689	361.3665161132813	1060.148681640625	-529.9307250976564	429.5076904296876	1113.77099609375	-569.1033935546876	-401.3580322265626	769.3060302734377	-842.639831542969	-378.6066589355469	760.9199829101564	-643.2034912109376	-486.3724670410157	899.0751953125002	-722.3182373046876	-511.7459716796876	877.5000610351565	-750.2575073242189	-507.6355285644532	871.114929199219	-693.0560302734376	-496.4971618652345	548.3110351562501	-944.0435791015627	-457.3674926757814	472.3080139160157	-955.7877197265627	-413.0204162597657	471.2944335937501	-937.467224121094	-484.9584045410157	416.911346435547	-952.6583251953127	-498.0521240234376	335.7501220703126	-945.9561767578127	-603.8112792968751	243.7731170654297	-915.2810058593752	-653.9406127929689	297.2745361328126	-974.849060058594	-653.9891357421876	262.6402587890626	-949.4631347656252	-732.9871826171876	256.7089538574219	-914.3069458007815	-868.9263305664065	318.2175292968751	-948.4495849609377	-857.2897949218752	306.4971008300782	-864.0689697265627	-909.7117919921877	381.4028015136719	-901.286804199219	-925.0823974609377	172.0296325683594	-867.0440673828127	-928.2296142578127	165.6928100585938	-906.1717529296877	-955.1998291015627	204.7392120361329	-958.4478759765627	-326.4872741699219	629.6015625000001	-576.3782348632814	-282.3803405761719	559.1192016601564	-580.2326660156251	-199.2246398925782	439.974334716797	-631.2572021484376	-213.8167419433594	278.7965087890626	-714.3717651367189	-291.5205078125001	219.4712677001954	-660.4241943359376	-263.4077453613282	205.322982788086	-698.6643676757814	-294.5975646972657	184.7227630615235	-744.4407348632814	-381.3662414550782	123.0199279785157	-698.4577636718751	-367.5605468750001	135.2705841064453	-775.5982055664065	-458.4517822265626	106.8889770507813	-753.1671752929689	-258.9209289550782	58.30874633789064	-783.5426025390627	-253.7234954833985	59.76415634155275	-737.9515380859376	-293.2931213378907	47.14373016357423	-683.3179321289064	-22.06835365295411	1374.238403320313	-623.2442016601564	-390.9592590332032	634.7098999023439	-563.2460937500001	-312.6103820800782	657.4953613281251	-594.5179443359376	
